# xmcd
#
# Track frame offsets:
#	150
#	22408
#	46395
#	68945
#	94950
#	114155
#	132255
#	153230
#	179348
#	197355
#	214933
#	236855
#
# Disc length: 3492 seconds
#
# Revision: 1
# Processed by: cddbd v1.4PL0 Copyright (c) Steve Scherf et al.
# Submitted via: EasyCDDAExtractor 5.0.7
#
DISCID=ab0da20c
DTITLE=Duy Tuong and Nhu Mai - Tieng Yeu Em
DYEAR=1900
DGENRE=
TTITLE0=Tieng yeu em
TTITLE1=Tinh yeu dam say
TTITLE2=Em di chieu mua
TTITLE3=Tinh tuyet dieu
TTITLE4=Tinh cho khong 
TTITLE5=Khuc ca muon thuo
TTITLE6=Yeu em dem nay
TTITLE7=Tra lai thoang may bay
TTITLE8=Tinh nong chay
TTITLE9=Vet son tren ao
TTITLE10=Loi cuoi cho em
TTITLE11=Nang
EXTD=
EXTT0=
EXTT1=
EXTT2=
EXTT3=
EXTT4=
EXTT5=
EXTT6=
EXTT7=
EXTT8=
EXTT9=
EXTT10=
EXTT11=
PLAYORDER=
